<svg xmlns="http://www.w3.org/2000/svg" viewBox="0 0 2857 3000" width="2857" height="3000"><g transform="translate(497.14285714285717 191.42857142857144) rotate(0.0 714.2857142857143 1305.7142857142858) scale(1.4264289323150914 1.427112307727259)"><svg width="1001.502" height="1829.869" viewBox="0 0 1001.502 1829.869"><rect fill="#1e284c" height="1814.869" rx="100" width="912.211" x="7.5" y="7.5"/><path d="M819.711 1829.869H107.5c-59.276 0-107.5-48.224-107.5-107.5V107.5C0 48.224 48.224 0 107.5 0h712.211c59.276 0 107.5 48.224 107.5 107.5v1614.869c0 59.276-48.224 107.5-107.5 107.5zM107.5 15C56.495 15 15 56.495 15 107.5v1614.869c0 51.005 41.495 92.5 92.5 92.5h712.211c51.005 0 92.5-41.495 92.5-92.5V107.5c0-51.005-41.495-92.5-92.5-92.5z" fill="#1e284c"/><rect fill="#fff" height="1814.869" rx="100" width="912.211" x="83.146" y="7.5"/><g fill="#1e284c"><path d="M630.37 55.678H448.133c-16.354 0-29.611 13.257-29.611 29.611s13.257 29.611 29.611 29.611H630.37c16.354 0 29.611-13.257 29.611-29.611s-13.257-29.611-29.611-29.611z"/><path d="M630.37 122.4H448.133c-20.463 0-37.111-16.648-37.111-37.111s16.648-37.111 37.111-37.111H630.37c20.463 0 37.111 16.648 37.111 37.111S650.833 122.4 630.37 122.4zM448.133 63.178c-12.192 0-22.111 9.919-22.111 22.111s9.919 22.111 22.111 22.111H630.37c12.192 0 22.111-9.919 22.111-22.111s-9.919-22.111-22.111-22.111z"/><path d="M894.002 1829.869H181.791c-59.276 0-107.5-48.224-107.5-107.5V107.5c0-59.276 48.224-107.5 107.5-107.5h712.211c59.275 0 107.5 48.224 107.5 107.5v1614.869c0 59.276-48.224 107.5-107.5 107.5zM181.791 15c-51.005 0-92.5 41.495-92.5 92.5v1614.869c0 51.005 41.495 92.5 92.5 92.5h712.211c51.005 0 92.5-41.495 92.5-92.5V107.5c0-51.005-41.495-92.5-92.5-92.5z"/><path d="M685.369 1787.159H393.133a7.5 7.5 0 0 1 0-15h292.236a7.5 7.5 0 0 1 0 15z"/></g></svg></g><g transform="translate(717.1428571428571 1602.857142857143) rotate(0.0 555.7142857142858 482.8571428571428) scale(1.4284924759024522 1.426581389739292)"><svg width="778.043" height="676.943" viewBox="0 0 778.043 676.943"><rect fill="#95ff80" height="133.826" rx="66.913" width="763.043" x="7.5" y="543.117"/><path d="M233.706 419.06H98.713a7.5 7.5 0 0 1 0-15h134.992a7.5 7.5 0 0 1 0 15zm291.377 0H287.885a7.5 7.5 0 0 1 0-15h237.198a7.5 7.5 0 0 1 0 15z" fill="#1e284c"/><rect fill="#fff" height="55.178" rx="12" width="55.178" x="7.5" y="383.971"/><path d="M50.678 446.649H19.5c-10.752 0-19.5-8.747-19.5-19.5v-31.178c0-10.752 8.748-19.5 19.5-19.5h31.178c10.752 0 19.5 8.748 19.5 19.5v31.178c0 10.752-8.748 19.5-19.5 19.5zM19.5 391.471c-2.439 0-4.5 2.061-4.5 4.5v31.178c0 2.439 2.061 4.5 4.5 4.5h31.178c2.439 0 4.5-2.061 4.5-4.5v-31.178c0-2.439-2.061-4.5-4.5-4.5z" fill="#1e284c"/><rect fill="#fff" height="133.826" rx="66.913" width="763.043" x="7.5" y="193.416"/><g fill="#dea2ff"><path d="M703.63 334.742H74.413C33.382 334.742 0 301.36 0 260.329s33.382-74.413 74.413-74.413h629.218c41.031 0 74.413 33.381 74.413 74.413s-33.382 74.413-74.413 74.413zM74.413 200.916c-32.76 0-59.413 26.653-59.413 59.413s26.653 59.413 59.413 59.413h629.218c32.76 0 59.413-26.653 59.413-59.413s-26.653-59.413-59.413-59.413z"/><path d="M443.867 267.829c-.489 0-.981-.049-1.465-.147a7.653 7.653 0 0 1-2.698-1.118 7.425 7.425 0 0 1-1.14-.933 7.544 7.544 0 0 1-2.196-5.302c0-.489.049-.982.147-1.466a7.617 7.617 0 0 1 1.117-2.698 7.425 7.425 0 0 1 2.072-2.072 7.653 7.653 0 0 1 2.698-1.118 7.416 7.416 0 0 1 2.931 0c.478.097.95.241 1.403.428.452.188.888.42 1.295.69a7.425 7.425 0 0 1 2.762 3.367 7.475 7.475 0 0 1 .574 2.869c0 1.975-.8 3.908-2.196 5.302-.346.346-.729.66-1.14.933-.407.27-.843.502-1.295.69a7.698 7.698 0 0 1-1.403.428 7.401 7.401 0 0 1-1.466.147zm-47.1-7.5c0-4.143 3.357-7.5 7.5-7.5a7.5 7.5 0 1 1 0 15 7.5 7.5 0 0 1-7.5-7.5zm-39.601 0a7.5 7.5 0 0 1 7.5-7.5 7.5 7.5 0 1 1 0 15 7.5 7.5 0 0 1-7.5-7.5zm-39.601 0a7.5 7.5 0 1 1 14.999 0 7.5 7.5 0 1 1-14.999 0zm-39.601 0a7.5 7.5 0 0 1 7.5-7.5 7.5 7.5 0 1 1 0 15 7.5 7.5 0 0 1-7.5-7.5zm-39.601 0a7.5 7.5 0 0 1 7.501-7.5 7.5 7.5 0 1 1-7.501 7.5zm-39.6 0c0-4.143 3.357-7.5 7.499-7.5a7.5 7.5 0 1 1 0 15 7.5 7.5 0 0 1-7.499-7.5zm-39.601 0c0-4.143 3.357-7.5 7.5-7.5a7.5 7.5 0 1 1 0 15 7.5 7.5 0 0 1-7.5-7.5zm-39.601 0a7.5 7.5 0 0 1 7.5-7.5 7.5 7.5 0 1 1 0 15 7.5 7.5 0 0 1-7.5-7.5zm-32.101 7.5a7.531 7.531 0 0 1-4.163-1.265 7.43 7.43 0 0 1-1.14-.932 7.552 7.552 0 0 1-2.197-5.303 7.477 7.477 0 0 1 .575-2.869c.187-.453.419-.888.689-1.295a7.37 7.37 0 0 1 2.073-2.072c.406-.27.842-.502 1.294-.69a7.684 7.684 0 0 1 1.404-.428 7.416 7.416 0 0 1 2.931 0 7.644 7.644 0 0 1 2.697 1.118 7.378 7.378 0 0 1 2.073 2.072 7.577 7.577 0 0 1 1.264 4.164 7.552 7.552 0 0 1-2.197 5.303 7.503 7.503 0 0 1-2.434 1.622 7.544 7.544 0 0 1-2.869.575z"/></g><rect fill="#fff" height="133.826" rx="66.913" width="763.043" x="7.5" y="7.5"/><path d="M703.63 148.826H74.413C33.382 148.826 0 115.445 0 74.413S33.382 0 74.413 0h629.218c41.031 0 74.412 33.381 74.412 74.413s-33.382 74.413-74.413 74.413zM74.413 15C41.653 15 15 41.653 15 74.413s26.653 59.413 59.413 59.413h629.218c32.76 0 59.413-26.653 59.413-59.413S736.391 15 703.631 15z" fill="#dea2ff"/><path d="M322.653 81.913H85.454a7.5 7.5 0 0 1 0-15h237.198a7.5 7.5 0 0 1 0 15zm189.171 0H376.831a7.5 7.5 0 0 1 0-15h134.993a7.5 7.5 0 0 1 0 15z" fill="#dea2ff"/></svg></g><g transform="translate(334.2857142857143 1235.7142857142858) rotate(0.0 927.1428571428571 625.0) scale(1.427787135637908 1.4280361190319515)"><svg width="1298.713" height="875.328" viewBox="0 0 1298.713 875.328"><path d="M362.523 875.323a7.5 7.5 0 0 1-.02-15 950.644 950.644 0 0 0 49.537-1.418c4.131-.253 7.673 2.939 7.901 7.075a7.499 7.499 0 0 1-7.076 7.901c-16.51.91-33.44 1.396-50.322 1.441h-.021Zm-69.943-2.225a7.49 7.49 0 0 1-.496-.016c-5.575-.364-11.253-.779-16.879-1.233-11.441-.925-22.708-2.24-33.486-3.91a7.5 7.5 0 0 1 2.296-14.824c10.419 1.614 21.32 2.887 32.398 3.782 5.548.448 11.15.857 16.648 1.216a7.5 7.5 0 0 1-.482 14.985Zm189.469-5.749a7.501 7.501 0 0 1-.989-14.935 836.563 836.563 0 0 0 48.844-8.028 7.5 7.5 0 0 1 2.874 14.723 852.558 852.558 0 0 1-49.722 8.173 7.648 7.648 0 0 1-1.007.067Zm-306.903-16.364a7.458 7.458 0 0 1-2.571-.457c-16.514-6.028-32.127-13.332-46.407-21.707a7.502 7.502 0 0 1 7.589-12.94c13.503 7.921 28.294 14.837 43.962 20.557a7.499 7.499 0 0 1 4.473 9.617 7.504 7.504 0 0 1-7.046 4.93Zm424.162-8.073a7.5 7.5 0 0 1-2.067-14.711 778.57 778.57 0 0 0 47.083-15.16c3.9-1.4 8.193.636 9.588 4.535a7.5 7.5 0 0 1-4.536 9.588 793.004 793.004 0 0 1-47.995 15.455 7.527 7.527 0 0 1-2.074.293Zm112.237-41.813a7.5 7.5 0 0 1-6.809-4.347 7.499 7.499 0 0 1 3.649-9.959 769.913 769.913 0 0 0 44.237-22.28 7.5 7.5 0 0 1 7.176 13.172 784.498 784.498 0 0 1-45.103 22.716 7.464 7.464 0 0 1-3.15.698ZM75.61 786.262a7.48 7.48 0 0 1-5.521-2.421C58.567 771.32 48.29 757.38 39.542 742.406a7.5 7.5 0 0 1 2.692-10.259 7.5 7.5 0 0 1 10.259 2.692c8.206 14.046 17.839 27.114 28.633 38.843a7.5 7.5 0 0 1-5.517 12.579Zm740.467-43.808a7.5 7.5 0 0 1-4.162-13.745 817.282 817.282 0 0 0 40.31-28.64 7.5 7.5 0 1 1 9.053 11.961 833.489 833.489 0 0 1-41.053 29.167 7.466 7.466 0 0 1-4.148 1.257ZM19.322 681.662a7.503 7.503 0 0 1-7.232-5.53c-4.331-15.894-7.541-32.778-9.541-50.185a7.501 7.501 0 0 1 6.595-8.308c4.112-.478 7.834 2.48 8.307 6.595 1.913 16.656 4.979 32.79 9.111 47.954a7.5 7.5 0 0 1-7.24 9.474Zm891.425-12.566a7.5 7.5 0 0 1-4.997-13.095 916.35 916.35 0 0 0 36.052-34.009 7.5 7.5 0 0 1 10.583 10.63 931.96 931.96 0 0 1-36.645 34.567 7.476 7.476 0 0 1-4.992 1.905Zm84.118-85.39a7.5 7.5 0 0 1-5.651-12.428 1064.839 1064.839 0 0 0 31.715-38.175 7.5 7.5 0 1 1 11.756 9.316 1082.028 1082.028 0 0 1-32.164 38.714 7.483 7.483 0 0 1-5.657 2.572ZM8.223 562.693a7.5 7.5 0 0 1-7.495-7.924c.933-16.485 2.781-33.465 5.493-50.466a7.5 7.5 0 0 1 14.813 2.363c-2.632 16.501-4.426 32.97-5.33 48.95a7.5 7.5 0 0 1-7.481 7.076Zm1060.336-73.576a7.458 7.458 0 0 1-4.289-1.353 7.5 7.5 0 0 1-1.853-10.444 1259.993 1259.993 0 0 0 27.638-41.297 7.5 7.5 0 1 1 12.627 8.097 1276.237 1276.237 0 0 1-27.969 41.791 7.493 7.493 0 0 1-6.155 3.205ZM29.077 444.742a7.5 7.5 0 0 1-7.201-9.611 583.53 583.53 0 0 1 16.335-47.925 7.499 7.499 0 1 1 13.973 5.453 568.646 568.646 0 0 0-15.913 46.688 7.504 7.504 0 0 1-7.194 5.394Zm1103.531-57.036a7.5 7.5 0 0 1-6.504-11.223 1498.526 1498.526 0 0 0 23.96-43.596 7.5 7.5 0 0 1 13.263 7.008 1516.418 1516.418 0 0 1-24.201 44.033 7.496 7.496 0 0 1-6.518 3.778ZM74.745 334.016a7.5 7.5 0 0 1-6.563-11.12c8.485-15.406 17.556-29.912 26.959-43.114a7.5 7.5 0 1 1 12.218 8.702c-9.07 12.733-17.83 26.746-26.038 41.648a7.5 7.5 0 0 1-6.576 3.883Zm1113.289-52.708a7.454 7.454 0 0 1-3.211-.727 7.499 7.499 0 0 1-3.559-9.991 1775.381 1775.381 0 0 0 20.708-45.278 7.501 7.501 0 0 1 13.727 6.049 1791.841 1791.841 0 0 1-20.884 45.661 7.5 7.5 0 0 1-6.781 4.286Zm47.838-110.038a7.5 7.5 0 0 1-6.967-10.274 2086.545 2086.545 0 0 0 17.856-46.515 7.5 7.5 0 1 1 14.067 5.209 2104.986 2104.986 0 0 1-17.985 46.851 7.503 7.503 0 0 1-6.971 4.729Zm41.197-112.706a7.467 7.467 0 0 1-2.385-.392 7.499 7.499 0 0 1-4.726-9.495 2421.39 2421.39 0 0 0 14.102-43.426 7.5 7.5 0 0 1 14.31 4.498 2432.975 2432.975 0 0 1-14.189 43.697 7.504 7.504 0 0 1-7.11 5.117Z" style="fill:#1e284c"/></svg></g><g transform="translate(848.5714285714286 610.0) rotate(0.0 418.5714285714286 418.57142857142856) scale(1.428079155551938 1.4280791555519379)"><svg width="586.202" height="586.202" viewBox="0 0 586.202 586.202"><circle cx="295.859" cy="293.098" fill="#fff" r="285.601"/><path d="M481.201 330.043c26.709-26.813 30.97-72.015-4.073-101.61-37.462-31.573-50.79-45.543-62.883-85.568-22.74-75.024-84.448-66.364-84.448-66.364-36.966-32.845-127.82-21.474-146.17 64.172-8.531 40.066-15.62 98.932-54.586 143.967-39.059 45.106 13.355 86.432 13.355 86.432-26.383 44.552 67.064 131.346 197.571 121.274 104.537-8.041 136.199-48.163 147.269-68.205 24.008-43.603 11.859-77.29-6.033-94.097z" fill="#1e284c"/><path d="M319.127 500.65c-36.49 0-72.01-7.239-103.815-21.27-33.057-14.583-60.136-35.997-74.293-58.751-10.639-17.098-13.33-33.792-7.848-47.721-7.977-7.608-23.694-25.266-25.849-47.949-1.517-15.963 3.883-31.181 16.048-45.23 32.625-37.705 42.031-85.607 49.589-124.096 1.14-5.804 2.216-11.286 3.332-16.523 8.61-40.186 34.25-70.012 70.349-81.841 30.573-10.018 64.475-5.354 85.625 11.51 6.053-.296 19.193-.046 33.982 5.793 18.208 7.188 42.56 24.494 55.175 66.116 11.586 38.35 24.281 51.452 60.539 82.009 17.035 14.386 26.903 33.695 27.793 54.374.815 18.937-5.802 37.838-18.321 52.867 17.29 20.353 25.888 55.108 2.371 97.818-22.748 41.186-75.744 66.103-153.263 72.066-7.161.552-14.306.827-21.413.827zM279.674 66.973c-9.35 0-19.014 1.486-28.364 4.55-18.155 5.949-50.137 23.047-60.351 70.72-1.088 5.111-2.153 10.536-3.281 16.28-7.483 38.109-17.732 90.302-52.967 131.023-9.36 10.809-13.553 22.22-12.464 33.916 2.187 23.502 24.577 41.548 24.802 41.728 2.933 2.331 3.708 6.478 1.798 9.702-7.9 13.341-.316 29.417 4.907 37.813 12.604 20.256 37.247 39.556 67.612 52.951 24.925 10.996 65.635 23.254 118.021 19.211 72.243-5.557 121.097-27.81 141.281-64.354 21.587-39.205 11.777-69.618-4.603-85.004a7.496 7.496 0 0 1-.178-10.759c12.735-12.785 19.617-29.928 18.881-47.033-.718-16.68-8.492-31.741-22.48-43.554-38.058-32.075-52.511-47.054-65.224-89.129-8.73-28.805-24.318-47.82-46.326-56.509-15.982-6.31-29.765-4.615-29.9-4.597a7.501 7.501 0 0 1-6.024-1.821c-11.127-9.886-27.576-15.133-45.14-15.133z" fill="#1e284c"/><path d="M44.023 432.939s78.39-69.767 177.036-74.565 264.501 7.025 326.945 67.703c0 0-40.09 69.742-85.822 97.214s-136.044 61.34-191.823 55.196C122.235 562.17 44.023 432.939 44.023 432.939z" fill="#95ff80"/><path d="M44.02 440.432a7.469 7.469 0 0 1-4.852-1.784 7.496 7.496 0 0 1-.868-10.558c.613-.724 15.359-17.933 44.772-36.186 26.95-16.723 71.966-37.563 133.384-41.875 66.617-4.677 123.012-2.934 172.413 5.328 60.896 10.185 112.616 30.15 158.114 61.036a7.5 7.5 0 0 1-8.424 12.411c-79.727-54.122-178.745-73.802-321.051-63.812-58.042 4.074-100.533 23.624-125.958 39.306-27.619 17.035-41.675 33.336-41.813 33.499a7.493 7.493 0 0 1-5.716 2.635z" fill="#1e284c"/><path d="M354.881 345.908c-7.093-9.837-14.064-23.915-13.789-31.309-.594 11.861 2.892-73.091 2.892-73.091l-97.421-3.907s-2.324 59.473-3.185 79.315c-.71 17.356-18.243 38.327-18.243 38.327-17.095 30.627 75.707 95.635 75.707 95.635s72.913-78.855 54.038-104.969z" fill="#fff"/><path d="M300.84 458.377a7.48 7.48 0 0 1-4.3-1.357c-.966-.677-23.907-16.809-45.136-37.047-31.178-29.722-41.912-52.091-32.817-68.386.228-.409.494-.796.795-1.155 4.419-5.305 16.008-21.734 16.503-33.823.851-19.617 3.161-78.706 3.184-79.301a7.502 7.502 0 0 1 7.795-7.201l97.42 3.907a7.502 7.502 0 0 1 7.193 7.801c-1.061 25.851-2.6 63.783-2.902 72.28.017.258.021.519.011.783-.158 4.264 4.883 16.25 12.373 26.637 10.027 13.873 3.535 37.075-19.848 70.933-15.988 23.15-34.003 42.7-34.762 43.521a7.49 7.49 0 0 1-5.51 2.408zm-69.417-98.972c-7.78 16.333 34.233 56.529 68.313 81.453 6.306-7.198 18.34-21.437 29.113-37.051 26.567-38.507 21.989-50.69 19.954-53.506l-.004-.006c-5.054-7.008-14.197-22.374-15.135-33.505a11.675 11.675 0 0 1-.114-2.131c.018-.552.046-1.361.084-2.392.075-2.034.187-4.94.324-8.427.273-6.961.646-16.243 1.021-25.524.455-11.25.914-22.5 1.205-29.616l-82.419-3.305c-.654 16.651-2.223 56.427-2.892 71.845-.742 18.13-15.949 37.854-19.45 42.166z" fill="#1e284c"/><path d="M396.643 170.922c-11.924-58.368-54.895-101.078-104.815-99.764-49.92 1.315-90.54 46.222-99.384 105.114-17.781.655-31.775 15.482-31.296 33.324.469 17.924 15.44 32.104 33.364 31.635l1.264-.089c14.03 54.296 55.326 93.119 102.986 91.851 47.66-1.269 86.781-42.277 97.958-97.199.421-.03.832.023 1.253-.007 17.924-.469 32.104-15.44 31.635-33.364-.408-17.749-15.143-31.816-32.964-31.5z" fill="#fff"/><g fill="#1e284c"><path d="M296.448 340.523c-24.188 0-47.242-9.323-66.826-27.06-17.996-16.298-31.912-39.174-39.563-64.88-19.945-1.784-35.874-18.311-36.41-38.79-.53-19.703 13.52-36.624 32.33-40.302 5.227-28.023 17.633-53.586 35.269-72.484 19.429-20.82 44.425-32.662 70.381-33.346 25.955-.688 51.551 9.828 72.059 29.599 18.617 17.948 32.357 42.828 39.049 70.538 19.011 2.643 33.914 18.76 34.367 38.452.536 20.463-14.483 37.805-34.283 40.642-6.295 26.082-18.983 49.669-36.076 66.903-19.254 19.413-42.694 30.027-67.785 30.695-.838.022-1.678.033-2.513.033zM195.78 233.641a7.499 7.499 0 0 1 7.257 5.624c13.413 51.911 52.699 87.365 95.525 86.229 42.771-1.139 80.112-38.64 90.808-91.197a7.5 7.5 0 0 1 6.82-5.986c.457-.033.908-.032 1.358-.02l.074.002.154-.006c13.779-.361 24.695-11.876 24.333-25.67-.313-13.595-11.688-24.433-25.334-24.198-3.634.081-6.758-2.458-7.481-5.998-11.341-55.519-52.23-94.947-97.27-93.768-44.99 1.185-83.751 42.707-92.165 98.731a7.5 7.5 0 0 1-7.141 6.381c-13.641.502-24.44 11.999-24.074 25.627.36 13.732 11.744 24.607 25.516 24.343l1.085-.077c.179-.013.357-.019.534-.019zm201.673-5.337h-.009zm.006 0h-.004z"/><path d="M192.443 176.272s114.13-41.377 120.086-99.219c1.862-17.877-119.086-23.198-120.086 99.219z"/><path d="M192.149 183.163a7.177 7.177 0 0 1-3.602-1.211c-1.835-1.319-2.909-3.376-2.872-5.625.199-26.437 5.853-49.173 16.795-67.562 9.251-15.599 22.161-27.81 38.174-36.203 27.469-14.445 59.731-14.756 72.723-6.004 5.834 4 6.305 8.818 6.063 11.375-6.324 61.384-119.757 103.184-124.568 104.908-.945.213-1.798.355-2.712.322zm98.674-108.711c-8.709-.443-20.379.741-33.076 5.383-20.406 7.499-54.054 28.502-58.079 86.256 10.672-4.483 28.913-12.675 47.264-23.691 24.862-14.945 55.044-38.226 58.673-64.727-1.989-1.422-7.316-2.853-14.782-3.221z"/><path d="M300.653 103.42s66.605 9.244 95.99 67.501c0 0 1.886-102.52-84.124-93.786"/><path d="M396.277 177.72c-2.403-.139-4.649-1.511-5.784-3.743-27.31-54.236-90.217-63.677-90.792-63.75-3.768-.564-6.338-3.98-5.856-7.759.564-3.768 3.98-6.338 7.759-5.856.739.094 17.958 2.54 38.978 12.483 18.425 8.694 34.039 20.451 46.164 34.686-3.167-15.096-9.778-33.302-23.223-45.701-12.553-11.534-29.479-16.28-50.282-14.175-3.719.361-7.133-2.329-7.483-6.13s2.329-7.133 6.13-7.483c24.862-2.506 45.389 3.45 60.924 17.786 31.307 28.785 30.696 80.713 30.659 82.962-.069 3.163-2.254 5.89-5.347 6.581-.596.091-1.192.182-1.849.098z"/><path d="M293.183 586.202c-1.016 0-2.023-.005-3.041-.015-78.286-.79-151.579-32.019-206.376-87.935C28.968 442.336-.775 368.428.015 290.142S32.035 138.564 87.95 83.766 217.768-.786 296.059.015c78.286.791 151.579 32.02 206.376 87.935 54.798 55.916 84.541 129.823 83.75 208.109-.79 78.286-32.019 151.579-87.935 206.376-55.188 54.085-127.915 83.766-205.068 83.766zM293.057 15C141.004 15 16.553 137.902 15.015 290.294c-.75 74.28 27.471 144.405 79.465 197.459 51.993 53.054 121.535 82.685 195.814 83.435 74.262.723 144.405-27.471 197.459-79.465s82.685-121.535 83.435-195.815-27.471-144.405-79.465-197.459C439.73 45.395 370.188 15.764 295.909 15.014c-.945-.01-1.908-.014-2.851-.014z"/></g></svg></g><g transform="translate(1621.4285714285716 1722.857142857143) rotate(0.0 451.42857142857133 540.0000000000001) scale(1.4267315769334523 1.426795483399631)"><svg width="632.815" height="756.941" viewBox="0 0 632.815 756.941"><path d="m316.409 7.5-.001.002-.001-.002C220.76 83.87 185.013 122.251 7.5 148.858l1.223 127.54C17.531 417.199 50.65 638.243 316.407 749.44h.001c265.757-111.197 298.876-332.242 307.684-473.042l1.223-127.54C447.802 122.251 412.056 83.87 316.409 7.5z" fill="#fff"/><path d="M316.408 756.941a7.509 7.509 0 0 1-2.895-.581c-63.185-26.438-117.428-60.925-161.223-102.504-38.143-36.213-69.37-78.784-92.813-126.529-43.242-88.068-53.839-180.111-58.239-250.46a7.483 7.483 0 0 1-.014-.396L0 148.93a7.5 7.5 0 0 1 6.388-7.489C168.451 117.15 209.379 84.136 290.919 18.363a5320.08 5320.08 0 0 1 20.807-16.724h.001a7.506 7.506 0 0 1 9.361 0c7.25 5.789 14.156 11.36 20.807 16.724 81.54 65.773 122.469 98.787 284.531 123.078a7.5 7.5 0 0 1 6.388 7.489l-1.223 127.54a7.483 7.483 0 0 1-.014.396c-4.401 70.349-14.997 162.392-58.239 250.46-23.443 47.746-54.67 90.316-92.813 126.529-43.794 41.579-98.037 76.066-161.222 102.504a7.49 7.49 0 0 1-2.895.581zM16.221 276.129c10.146 161.772 53.565 360.574 300.186 465.174 246.622-104.6 290.041-303.402 300.187-465.174l1.159-120.835C456.939 130.435 412.431 94.532 332.478 30.039a6965.707 6965.707 0 0 0-16.07-12.935c-5.541 4.441-10.884 8.751-16.071 12.935-79.953 64.492-124.461 100.396-285.275 125.255zM316.407 7.502h.01zm0 0h.01z" fill="#1e284c"/><path d="m316.409 84.816-.001.001-.001-.001c-75.712 60.453-104.009 90.835-244.525 111.897l.968 100.959c6.972 111.456 33.189 286.431 243.558 374.453 210.369-88.022 236.586-262.997 243.558-374.453l.968-100.959c-140.516-21.062-168.813-51.444-244.525-111.897z" fill="#dea2ff"/><path d="M316.408 679.625a7.509 7.509 0 0 1-2.895-.581c-50.192-21.001-93.289-48.404-128.094-81.448-30.328-28.794-55.157-62.642-73.796-100.603-34.352-69.961-42.766-143.019-46.259-198.851a7.483 7.483 0 0 1-.014-.396l-.968-100.959a7.5 7.5 0 0 1 6.388-7.489c127.867-19.166 160.155-45.21 224.481-97.097a4171.227 4171.227 0 0 1 16.476-13.243 7.47 7.47 0 0 1 1.517-.94h.002a.142.142 0 0 1 .018-.008l.003-.001.017-.008a.142.142 0 0 1 .022-.01h.002l.02-.009.003-.001.016-.007.007-.003.012-.005.009-.004.01-.004.01-.004.009-.004.011-.005.009-.004.011-.005.009-.004a.39.39 0 0 1 .02-.009l.009-.004.01-.004.01-.004.01-.004.01-.004.01-.004.01-.004.009-.004.012-.005.007-.003.018-.007h.002l.021-.008h.001l.019-.008h.002l.019-.008h.002a7.51 7.51 0 0 1 2.762-.527h.014a7.475 7.475 0 0 1 4.667 1.639c5.741 4.584 11.21 8.995 16.476 13.243 64.326 51.887 96.614 77.932 224.481 97.098a7.5 7.5 0 0 1 6.388 7.489l-.968 100.959a7.483 7.483 0 0 1-.014.396c-3.492 55.832-11.906 128.89-46.258 198.851-18.64 37.962-43.468 71.809-73.796 100.603-34.805 33.044-77.902 60.448-128.094 81.448a7.509 7.509 0 0 1-2.895.581zM80.347 297.401c7.998 127.469 42.173 284.053 236.06 366.583 193.889-82.531 228.064-239.114 236.061-366.583l.904-94.256c-126.626-19.733-161.945-48.227-225.225-99.271-3.799-3.064-7.703-6.213-11.739-9.452-4.037 3.238-7.941 6.388-11.74 9.452-63.28 51.044-98.598 79.538-225.225 99.271z" fill="#dea2ff"/><g fill="#1e284c"><ellipse cx="316.408" cy="331.323" rx="73.353" ry="73.307"/><path d="M316.407 412.13c-44.583 0-80.854-36.25-80.854-80.808s36.271-80.807 80.854-80.807 80.854 36.25 80.854 80.807-36.271 80.808-80.854 80.808zm0-146.615c-36.312 0-65.854 29.521-65.854 65.807s29.542 65.808 65.854 65.808 65.854-29.521 65.854-65.808-29.542-65.807-65.854-65.807z"/><path d="M345.68 385.162h-58.546l8.906 113.763h40.735z"/><path d="M336.775 506.426h-40.734a7.5 7.5 0 0 1-7.477-6.915l-8.906-113.763a7.497 7.497 0 0 1 7.477-8.085h58.546a7.498 7.498 0 0 1 7.477 8.085l-8.906 113.763a7.5 7.5 0 0 1-7.477 6.915zm-33.799-15h26.863l7.731-98.763h-42.326z"/></g></svg></g><g transform="translate(2015.7142857142858 850.0) rotate(0.0 172.8571428571429 235.71428571428578) scale(1.4267202295958377 1.4248796948166766)"><svg width="242.314" height="330.855" viewBox="0 0 242.314 330.855"><path d="M216.249 323.355 234.814 7.5 7.5 227.585l127.089-1.626z" fill="#95ff80"/><g fill="#1e284c"><path d="M216.25 330.855a7.498 7.498 0 0 1-5.748-2.682l-79.374-94.67-123.532 1.581h-.097a7.501 7.501 0 0 1-5.217-12.888L229.597 2.112a7.501 7.501 0 0 1 12.704 5.829l-18.565 315.854a7.5 7.5 0 0 1-7.486 7.06zm-81.661-112.396a7.5 7.5 0 0 1 5.747 2.681l69.533 82.932 16.328-277.79-199.92 193.562 108.216-1.385z"/><path d="M134.585 233.46a7.499 7.499 0 0 1-6.812-10.629l40.942-89.243a7.5 7.5 0 0 1 13.633 6.255l-40.942 89.243a7.501 7.501 0 0 1-6.821 4.374z"/></g></svg></g></svg>